# xmcd
#
# Track frame offsets:
# 150
# 23694
# 44399
# 67942
#
# Disc length: 1179 seconds
#
#
# Revision: 2
# Processed by: cddbd v1.5.1PL2 Copyright (c) Steve Scherf et al.
# Submitted via: FreeRIP 2.30 
#
DISCID=28049904
DTITLE=Le Couple - ???????????
DYEAR=1900
DGENRE=Pop
TTITLE0=???????????
TTITLE1=??????
TTITLE2=??????????? (instrumental)
TTITLE3=?????? (instrumental)
EXTD=
EXTT0=
EXTT1=
EXTT2=
EXTT3=
PLAYORDER=
